# xmcd CD database file
#
# Track frame offsets:
#	150
#	12665
#	24655
#	36668
#	47726
#	60061
#	73394
#	84762
#	97090
#	109608
#	122209
#	133789
#	145347
#	158820
#	170515
#	181530
#	193783
#	206801
#	218992
#	231045
#	242988
#
# Disc length: 3377 seconds
#
# Revision: 7
# Processed by: cddbd v1.5.2PL0 Copyright (c) Steve Scherf et al.
# Submitted via: CDex 1.70beta2
#
DISCID=350d2f15
DTITLE=Lightning Hopkins - Morning Blues
DYEAR=1946
DGENRE=Blues
TTITLE0=Morning Blues
TTITLE1=Have To Let You Go
TTITLE2=Mistreated Blues
TTITLE3=Daddy Will Be Home One Day
TTITLE4=Howling Wolf
TTITLE5=Moon Rise Blues
TTITLE6=Baby You're Not Going To Make A Fool Out Of Me
TTITLE7=Mama's Baby Child
TTITLE8=So Long
TTITLE9=I Just Don't Care
TTITLE10=Honey Babe
TTITLE11=My California
TTITLE12=Unpredictable Woman
TTITLE13=See See Rider
TTITLE14=Abilene
TTITLE15=Rollin' An Rollin'
TTITLE16=Drinkin' Woman
TTITLE17=Miss Loretta
TTITLE18=Shotgun
TTITLE19=Tell It Like It Is
TTITLE20=Lightnin's Boogie
EXTD=Lightnin's Boogie, Baby You're Not Going To Make A Fool Out Of Me, Daddy Will Be Home One Day, Moon Rise Blues, Howling Wolf, Morning Blues, Have To Let You Go, Mama's Baby Child, Mistreated Blues, My California, Honey Babe, So Long, See See Rider, 
EXTD=Unpredictable Woman, I Just Don't Care, Drinkin' Woman, Abilene, Shotgun, Rollin' An Rollin', Tell It Like It Is, Miss Loretta\nHouston, Texas, February 25, 1948\nLigthnin' Hopkins (vcl)(g) YEAR: 1946
EXTT0=(Sam 'Lightnin' Hopkins)
EXTT1=(Sam 'Lightnin' Hopkins)
EXTT2=(Sam 'Lightnin' Hopkins)
EXTT3=(Sam 'Lightnin' Hopkins)
EXTT4=(Sam 'Lightnin' Hopkins)
EXTT5=(Sam 'Lightnin' Hopkins)
EXTT6=(Sam 'Lightnin' Hopkins)
EXTT7=(Sam 'Lightnin' Hopkins)
EXTT8=(Sam 'Lightnin' Hopkins)
EXTT9=(Sam 'Lightnin' Hopkins)
EXTT10=(Steiner/Webster)
EXTT11=(Sam 'Lightnin' Hopkins)
EXTT12=(Sam 'Lightnin' Hopkins)
EXTT13=(Ma Rainey)
EXTT14=(Sam 'Lightnin' Hopkins)
EXTT15=(Sam 'Lightnin' Hopkins)
EXTT16=(Sam 'Lightnin' Hopkins)
EXTT17=(Sam 'Lightnin' Hopkins)
EXTT18=(Sam 'Lightnin' Hopkins)
EXTT19=(Sam 'Lightnin' Hopkins)
EXTT20=(Sam 'Lightnin' Hopkins)
PLAYORDER=
